#!OML:ASF F:\VICON\USERDATA\INSTALL\rory3\rory3.ASF
:FULLY-SPECIFIED
:DEGREES
89
root -5.022170285877328 17.979871932409704 -4.279468260177926 -176.86271077390316 -11.913579328702156 -182.99362054559924
lfemur -27.797404480434736 -21.037140005800374 -12.409408267705599
ltibia 29.07084515686215
lfoot 27.061186110539026 -47.65866565324857
ltoes 50.10909929610733
rfemur 22.240840979605508 -12.867478252093099 23.8192303440768
rtibia 6.060931679976161
rfoot 39.89581451169168 -34.0462038955633
rtoes 24.05441745887257
lowerback -13.490313183246293 18.48910308437676 15.50860869589911
upperback -18.52864692245963 20.969574740234805 -0.26954477179349867
thorax -7.841337956485657 7.901711498650876 -6.487175941043304
lowerneck -7.885826751394462 -22.598306074823356 -6.331143282033778
upperneck 12.280925360779555 -31.42455320242526 4.719813324661781
head 6.470910678923026 -15.34480862160655 -0.29997902844799373
lclavicle -5.330098756014476e-15 -1.0530611369145781e-14
lhumerus 71.22702251954948 34.875886535873654 59.788902980904915
lradius 85.18904096291385
lwrist 15.193055366575496
lhand -30.65874621362395 16.536500104300497
lfingers 7.125020000000001
lthumb -183.9347533610117 -20.89862461843994
rclavicle -5.330098756014469e-15 -1.0530611369145783e-14
rhumerus 123.93271502743167 27.558593229642288 -49.66301316572222
rradius 74.42505579665647
rwrist 12.744275315657966
rhand -47.235336346116355 25.508739718833546
rfingers 7.125020000000001
rthumb -19.938404345981716 -3.4409182973325674
90
root -5.021700909422463 17.974026634097655 -4.3030026849195435 -176.8585654509062 -11.972674539720416 -183.16088536553463
lfemur -27.974622433381473 -21.03819065603282 -12.408208418854198
ltibia 29.02257655922605
lfoot 27.424950112467428 -47.53415959423414
ltoes 50.2394209533428
rfemur 22.20405389225656 -13.03600612224717 23.841854457414232
rtibia 5.909360230641312
rfoot 39.8919975810824 -34.22309944425951
rtoes 24.508933245600094
lowerback -13.548963265585984 18.55987494969285 15.50329608987374
upperback -18.560387284362605 21.03124879283706 -0.438923773275544
thorax -7.779622716705121 7.928203310944692 -6.631412451482939
lowerneck -8.092428882548443 -22.44259799828115 -6.335400443141828
upperneck 12.369067190669455 -31.156814661637945 4.5664827110017905
head 6.499160039813258 -15.204220893772675 -0.337548611187924
lclavicle -5.373558918837753e-15 -1.057597341862131e-14
lhumerus 70.92814607712147 34.96667507051618 58.13144372439363
lradius 84.08274879824266
lwrist 14.589797453237637
lhand -30.507292781003173 16.317601121436045
lfingers 7.125020000000001
lthumb -183.78815177021687 -17.840578967395928
rclavicle -5.373558918837744e-15 -1.0575973418621306e-14
rhumerus 123.05480814183545 27.566995642595295 -50.33666530278107
rradius 74.30528666117033
rwrist 12.024129689109948
rhand -47.9039484624956 26.12248422598232
rfingers 7.125020000000001
rthumb -20.581935159862407 -2.800716596171638
91
root -5.018981719810229 17.97260748081813 -4.31184569977157 -176.8182390071978 -11.92157912679292 -183.27691162973548
lfemur -28.140438538933395 -21.023382666896932 -12.349859458354985
ltibia 28.952737944158393
lfoot 27.659481055464106 -47.356316124678344
ltoes 50.29506026978163
rfemur 22.14444609446091 -13.090099249744712 23.906869302744123
rtibia 5.881975894088832
rfoot 39.768961921911874 -34.4648364451687
rtoes 25.00085387641907
lowerback -13.515045331680318 18.601321814031447 15.538077067549022
upperback -18.52033788896362 21.076363193474748 -0.5220468931353417
thorax -7.727085097276397 7.950213992098856 -6.720646908745055
lowerneck -8.330969734950044 -22.250635607081087 -6.286822998462237
upperneck 12.456276571029267 -30.838163405194997 4.428509398907104
head 6.523242010330908 -15.03451830986445 -0.37299484241640624
lclavicle -5.2971291848131365e-15 -1.0504625200392316e-14
lhumerus 70.58889582524111 34.9642267051753 56.48145709205192
lradius 82.75849139426296
lwrist 14.353197693651339
lhand -30.13176725533114 16.136105780265673
lfingers 7.125020000000001
lthumb -183.4254112096722 -15.520872898062692
rclavicle -5.2971291848131294e-15 -1.0504625200392314e-14
rhumerus 122.11369597748694 27.545378979387205 -51.04848020714714
rradius 73.97500653294112
rwrist 11.123351608202256
rhand -48.2309785760812 26.380068962793118
rfingers 7.125020000000001
rthumb -20.89757570560267 -2.5400973582182704
92
root -5.0154379302007275 17.974368283709296 -4.319021071325306 -176.95583581571404 -11.848915019038266 -183.55989442485165
lfemur -28.33737080138712 -21.02648449159848 -12.287308911636337
ltibia 28.831907347898472
lfoot 27.72544473971857 -47.23370223138977
ltoes 50.18277106159738
rfemur 21.955915112123456 -13.065324840505372 23.971488268610702
rtibia 5.934344852244813
rfoot 39.48195524442667 -34.781437392703424
rtoes 25.28493721573501
lowerback -13.431820274895735 18.532626343161986 15.552963664986528
upperback -18.433441979587037 21.04573141064596 -0.5496143197688879
thorax -7.691376498778995 7.959309520263002 -6.7789340834532865
lowerneck -8.611832067401515 -22.085001730610855 -6.207124262630886
upperneck 12.518605386749858 -30.557100184370533 4.262556170525804
head 6.534111189346188 -14.883141288335763 -0.4130469012465776
lclavicle -5.4532367259045095e-15 -1.0622986948555432e-14
lhumerus 70.14388142391886 34.66530884009316 54.70393875307303
lradius 81.14340162337402
lwrist 14.41718754134667
lhand -29.579844801617426 15.853413557719772
lfingers 7.125020000000001
lthumb -182.8928295047065 -14.828829741710237
rclavicle -5.4532367259045056e-15 -1.0622986948555433e-14
rhumerus 120.91676889198709 27.38544618792509 -51.852560682142965
rradius 73.3593873957755
rwrist 9.874743089254917
rhand -48.31082540450688 26.239507348369752
rfingers 7.125020000000001
rthumb -20.97576048501503 -2.698346975502586
93
root -5.007816031965628 17.979157577440752 -4.307660522884374 -176.7531413989961 -11.604975934937812 -183.50283413650237
lfemur -28.46802303113399 -20.93235115799607 -12.175815000395353
ltibia 28.684068569864458
lfoot 27.737833083792488 -47.013673800103774
ltoes 50.14285228056684
rfemur 21.764846929147694 -12.89306865216058 24.067044590926752
rtibia 6.1193078334553235
rfoot 39.166680425709124 -34.96640789835873
rtoes 25.397729368789292
lowerback -13.281763719703996 18.405722333059643 15.600638729748544
upperback -18.25428660944662 21.013788298305343 -0.5066601047657793
thorax -7.629060822609035 7.994942610691437 -6.785156152212595
lowerneck -8.908630351910247 -21.848831551231036 -6.080290313082513
upperneck 12.592001159887655 -30.17712160300244 4.107477703868423
head 6.545830017355282 -14.6879129881864 -0.45253385340967267
lclavicle -5.369959322862121e-15 -1.0531567647939598e-14
lhumerus 69.77771064934359 34.28329302847908 52.9327860177501
lradius 79.36974032102313
lwrist 14.822881175698809
lhand -28.76619067493648 15.608830559546266
lfingers 7.125020000000001
lthumb -182.10867929081914 -15.005665013099673
rclavicle -5.369959322862111e-15 -1.05315676479396e-14
rhumerus 119.80369292061101 27.19371380719681 -52.62226608232245
rradius 72.57325370387228
rwrist 8.432243389084704
rhand -48.052166461879715 25.88990020949458
rfingers 7.125020000000001
rthumb -20.728503848203147 -3.0815947846292406
94
root -4.997564094184393 17.985436023448397 -4.289837536246408 -176.4772120576003 -11.289059559601945 -183.34782525824525
lfemur -28.58512583972354 -20.776274769073428 -12.05997664781361
ltibia 28.494102472426444
lfoot 27.689142788515646 -46.79955513233715
ltoes 50.11470694424018
rfemur 21.47610006612961 -12.641931397354828 24.15009083412041
rtibia 6.3888669202530295
rfoot 38.78163950399381 -35.057957715505204
rtoes 25.216130522755567
lowerback -13.101900965987081 18.17557885788641 15.618493399696323
upperback -18.01426565488071 20.92379494724484 -0.4165071748283564
thorax -7.555494206571132 8.034259275442691 -6.754437493732011
lowerneck -9.2326817988466 -21.609529160599 -5.924412598732274
upperneck 12.64594936654332 -29.791049824782423 3.9280989735659864
head 6.546930697575656 -14.49244158885649 -0.4967542662596256
lclavicle -5.391393351676034e-15 -1.0529790572607835e-14
lhumerus 69.35928610638037 33.64682685622968 51.07533728596444
lradius 77.36675954066266
lwrist 15.477676414293107
lhand -27.779194892404174 15.291362072950555
lfingers 7.125020000000001
lthumb -181.15807473104368 -15.845342371811753
rclavicle -5.391393351676031e-15 -1.0529790572607837e-14
rhumerus 118.61461552988044 26.907353912723963 -53.38350731514188
rradius 71.4947911113343
rwrist 6.742596364835556
rhand -47.581868690210406 25.363429951187232
rfingers 7.125020000000001
rthumb -20.27747638058812 -3.653211201103044
